<?xml version="1.0" encoding="utf-8"?>
<!-- Generator: Adobe Illustrator 24.1.1, SVG Export Plug-In . SVG Version: 6.00 Build 0)  -->
<svg version="1.1" id="Capa_1" xmlns="http://www.w3.org/2000/svg" xmlns:xlink="http://www.w3.org/1999/xlink" x="0px" y="0px"
	 viewBox="0 0 17 17" style="enable-background:new 0 0 17 17;" xml:space="preserve">
<style type="text/css">
	.st0{fill:#F78B2E;}
</style>
<path class="st0" d="M2.7,2.7C1.2,4.2,0.4,6.2,0.4,8.3c0,1.4,0.4,2.8,1.1,4c0.7,1.2,1.7,2.2,2.9,2.9c1.2,0.7,2.6,1.1,4,1.1
	c2.1,0,4.2-0.8,5.7-2.3c1.5-1.5,2.3-3.5,2.3-5.7S15.5,4.2,14,2.7c-1.5-1.5-3.5-2.3-5.7-2.3C6.3,0.3,4.2,1.2,2.7,2.7z M4.4,8.3
	L4.4,8.3c0-0.2,0.1-0.4,0.2-0.5l2.6-2.6C7.4,5.1,7.6,5,7.8,5.1c0.2,0.1,0.4,0.2,0.5,0.5c0.1,0.2,0,0.5-0.2,0.6L6.6,7.7h5.2
	c0.2,0,0.4,0.1,0.6,0.3c0.1,0.2,0.1,0.4,0,0.6C12.2,8.8,12,9,11.8,9H6.6l1.5,1.5c0.2,0.2,0.2,0.4,0.2,0.6c-0.1,0.2-0.2,0.4-0.5,0.5
	c-0.2,0.1-0.5,0-0.6-0.2L4.6,8.8C4.5,8.7,4.4,8.5,4.4,8.3L4.4,8.3z"/>
</svg>
