<?xml version="1.0" encoding="utf-8"?>
<!-- Generator: Adobe Illustrator 24.1.1, SVG Export Plug-In . SVG Version: 6.00 Build 0)  -->
<svg version="1.1" id="Capa_1" xmlns="http://www.w3.org/2000/svg" xmlns:xlink="http://www.w3.org/1999/xlink" x="0px" y="0px"
	 viewBox="0 0 17 17" style="enable-background:new 0 0 17 17;" xml:space="preserve">
<style type="text/css">
	.st0{fill:#2BABAB;}
</style>
<path class="st0" d="M8.4,0.3c-2.1,0-4.2,0.8-5.7,2.3C1.2,4.2,0.4,6.2,0.4,8.3s0.8,4.2,2.3,5.7c1.5,1.5,3.5,2.3,5.7,2.3
	c1.4,0,2.8-0.4,4-1.1c1.2-0.7,2.2-1.7,2.9-2.9c0.7-1.2,1.1-2.6,1.1-4c0-2.1-0.8-4.2-2.3-5.7C12.5,1.2,10.5,0.3,8.4,0.3z M12.4,8.3
	c0,0.2-0.1,0.3-0.2,0.5l-2.6,2.6c-0.2,0.2-0.4,0.2-0.6,0.2c-0.2-0.1-0.4-0.2-0.5-0.5c-0.1-0.2,0-0.5,0.2-0.6L10.2,9H5
	C4.8,9,4.6,8.8,4.5,8.7C4.4,8.5,4.4,8.2,4.5,8C4.6,7.8,4.8,7.7,5,7.7h5.2L8.7,6.1C8.5,6,8.4,5.7,8.5,5.5c0.1-0.2,0.2-0.4,0.5-0.5
	c0.2-0.1,0.5,0,0.6,0.2l2.6,2.6C12.3,8,12.4,8.1,12.4,8.3L12.4,8.3L12.4,8.3z"/>
</svg>
