<?xml version="1.0" encoding="UTF-8"?>
<svg width="700pt" height="700pt" version="1.1" viewBox="0 0 700 700" xmlns="http://www.w3.org/2000/svg">
 <path d="m587.77 217.93-75.832 210c-1.6289 4.5078-4.6094 8.4062-8.5352 11.164-3.9258 2.7539-8.6016 4.2344-13.398 4.2344h-233.33c-5.332 0.15625-10.555-1.5195-14.801-4.7461-4.2422-3.2266-7.2578-7.8086-8.5352-12.984l-64.867-262.27h-28.465c-8.3359 0-16.039-4.4453-20.207-11.664s-4.168-16.117 0-23.336 11.871-11.664 20.207-11.664h46.668c5.3281-0.15625 10.551 1.5195 14.797 4.7461 4.2461 3.2266 7.2578 7.8086 8.5352 12.984l64.867 262.27h198.8l70-194.6c2.9961-7.6094 9.7617-13.094 17.828-14.453 8.0625-1.3633 16.254 1.6016 21.582 7.8047 5.3281 6.207 7.0195 14.75 4.457 22.516zm-267.87 8.6328 30.102-30.332v107.1c0 8.3359 4.4492 16.039 11.668 20.207 7.2188 4.168 16.113 4.168 23.332 0 7.2188-4.168 11.668-11.871 11.668-20.207v-107.1l30.102 30.332h-0.003906c4.3828 4.418 10.348 6.9023 16.566 6.9023 6.2227 0 12.188-2.4844 16.566-6.9023 4.418-4.3828 6.9023-10.344 6.9023-16.566s-2.4844-12.184-6.9023-16.566l-70-70c-2.2188-2.125-4.8359-3.7891-7.6992-4.8984-5.6797-2.3359-12.051-2.3359-17.734 0-2.8633 1.1094-5.4805 2.7734-7.6992 4.8984l-70 70c-5.918 5.918-8.2305 14.547-6.0625 22.629 2.168 8.0859 8.4805 14.402 16.566 16.566 8.0859 2.168 16.711-0.14453 22.629-6.0625z"/>
</svg>
